G04*
G04 #@! TF.GenerationSoftware,Altium Limited,Altium Designer,19.0.14 (431)*
G04*
G04 Layer_Physical_Order=3*
G04 Layer_Color=128*
%FSLAX25Y25*%
%MOIN*%
G70*
G01*
G75*
%ADD54C,0.04000*%
%ADD66C,0.15811*%
%ADD67C,0.07937*%
%ADD68C,0.09906*%
%ADD69C,0.07150*%
%ADD70C,0.06756*%
%ADD71C,0.05600*%
%ADD72C,0.05200*%
%ADD73C,0.06800*%
%ADD74R,2.27000X0.93000*%
D54*
X0Y0D02*
X226500D01*
X226500Y182500D02*
X226500Y0D01*
X0Y182500D02*
X226500D01*
X0Y0D02*
Y182500D01*
D66*
X123000Y104100D02*
D03*
D67*
X185500Y4000D02*
D03*
X170500D02*
D03*
X68000Y159000D02*
D03*
X87685Y151913D02*
D03*
X41500Y170933D02*
D03*
Y151248D02*
D03*
X204079Y108000D02*
D03*
X213921D02*
D03*
D68*
X132185Y18500D02*
D03*
X112500D02*
D03*
X18500Y147815D02*
D03*
Y167500D02*
D03*
Y11500D02*
D03*
Y31185D02*
D03*
X19000Y54500D02*
D03*
Y74185D02*
D03*
D69*
X147500Y112657D02*
D03*
Y132343D02*
D03*
X98500Y112657D02*
D03*
Y132343D02*
D03*
D70*
X138433Y170311D02*
D03*
Y150626D02*
D03*
X106500Y170311D02*
D03*
Y150626D02*
D03*
D71*
X148800Y86000D02*
D03*
X151000Y88000D02*
D03*
X134800Y89900D02*
D03*
X136800Y51900D02*
D03*
X166600Y77500D02*
D03*
X167000Y82500D02*
D03*
X206500Y83720D02*
D03*
X221000Y92400D02*
D03*
X215600Y84200D02*
D03*
X223500Y88000D02*
D03*
X199700Y91000D02*
D03*
X212300Y40815D02*
D03*
X186500Y42200D02*
D03*
X174300Y42300D02*
D03*
X183000Y34700D02*
D03*
X164900Y40815D02*
D03*
X178000Y35000D02*
D03*
X168000Y35100D02*
D03*
X158480Y29245D02*
D03*
X212000Y48700D02*
D03*
X224600Y64500D02*
D03*
X164306Y17798D02*
D03*
X191500Y57500D02*
D03*
X201500Y51000D02*
D03*
X146500Y64000D02*
D03*
X151000Y84000D02*
D03*
X201500Y34500D02*
D03*
Y13000D02*
D03*
X113783Y66048D02*
D03*
X191952Y88250D02*
D03*
X183750Y91000D02*
D03*
X125500Y53000D02*
D03*
X191500Y50500D02*
D03*
X184500Y75000D02*
D03*
X196548Y71689D02*
D03*
D72*
X142700Y84900D02*
D03*
X121000Y80900D02*
D03*
X147500Y21700D02*
D03*
X131200Y34400D02*
D03*
X206500Y19000D02*
D03*
X224600Y56500D02*
D03*
X144000Y64000D02*
D03*
X174500Y68000D02*
D03*
X112000Y85000D02*
D03*
X66303Y48000D02*
D03*
X58000D02*
D03*
X45000Y24500D02*
D03*
X39500D02*
D03*
X66500Y23000D02*
D03*
X77500Y36000D02*
D03*
X93500D02*
D03*
X54000Y128000D02*
D03*
X80000Y128500D02*
D03*
Y125250D02*
D03*
Y122000D02*
D03*
Y115750D02*
D03*
Y119000D02*
D03*
X77000Y126500D02*
D03*
Y123250D02*
D03*
Y120000D02*
D03*
Y113750D02*
D03*
Y117000D02*
D03*
X74000Y128000D02*
D03*
Y124750D02*
D03*
Y121500D02*
D03*
Y115250D02*
D03*
Y118500D02*
D03*
X60000Y128000D02*
D03*
Y124750D02*
D03*
Y121500D02*
D03*
Y115250D02*
D03*
Y118500D02*
D03*
X57000Y126500D02*
D03*
Y123250D02*
D03*
Y120000D02*
D03*
Y113750D02*
D03*
Y117000D02*
D03*
X54000Y115500D02*
D03*
Y112250D02*
D03*
X50500Y114500D02*
D03*
Y111500D02*
D03*
Y117500D02*
D03*
Y6500D02*
D03*
Y126500D02*
D03*
Y120500D02*
D03*
Y123500D02*
D03*
X54000Y118500D02*
D03*
Y121750D02*
D03*
Y125000D02*
D03*
D73*
X168200Y127100D02*
D03*
X210000Y162000D02*
D03*
X95500Y22500D02*
D03*
X75500D02*
D03*
X184000Y142500D02*
D03*
X204079Y162000D02*
D03*
X203000Y174000D02*
D03*
X209000D02*
D03*
X214500D02*
D03*
X220000D02*
D03*
D74*
X113500Y136000D02*
D03*
M02*
