G04*
G04 #@! TF.GenerationSoftware,Altium Limited,Altium Designer,19.0.14 (431)*
G04*
G04 Layer_Physical_Order=4*
G04 Layer_Color=16711680*
%FSLAX25Y25*%
%MOIN*%
G70*
G01*
G75*
%ADD23R,0.03000X0.03000*%
%ADD25R,0.03000X0.03000*%
%ADD27R,0.02362X0.04528*%
%ADD31C,0.03937*%
%ADD50C,0.01500*%
%ADD51C,0.01200*%
%ADD52C,0.08000*%
%ADD53C,0.02500*%
%ADD54C,0.04000*%
%ADD55C,0.10000*%
%ADD56C,0.11811*%
G04:AMPARAMS|DCode=57|XSize=118.11mil|YSize=118.11mil|CornerRadius=29.53mil|HoleSize=0mil|Usage=FLASHONLY|Rotation=0.000|XOffset=0mil|YOffset=0mil|HoleType=Round|Shape=RoundedRectangle|*
%AMROUNDEDRECTD57*
21,1,0.11811,0.05906,0,0,0.0*
21,1,0.05906,0.11811,0,0,0.0*
1,1,0.05906,0.02953,-0.02953*
1,1,0.05906,-0.02953,-0.02953*
1,1,0.05906,-0.02953,0.02953*
1,1,0.05906,0.02953,0.02953*
%
%ADD57ROUNDEDRECTD57*%
%ADD58C,0.05118*%
%ADD59C,0.04724*%
%ADD60C,0.07874*%
G04:AMPARAMS|DCode=61|XSize=118.11mil|YSize=118.11mil|CornerRadius=29.53mil|HoleSize=0mil|Usage=FLASHONLY|Rotation=270.000|XOffset=0mil|YOffset=0mil|HoleType=Round|Shape=RoundedRectangle|*
%AMROUNDEDRECTD61*
21,1,0.11811,0.05906,0,0,270.0*
21,1,0.05906,0.11811,0,0,270.0*
1,1,0.05906,-0.02953,-0.02953*
1,1,0.05906,-0.02953,0.02953*
1,1,0.05906,0.02953,0.02953*
1,1,0.05906,0.02953,-0.02953*
%
%ADD61ROUNDEDRECTD61*%
G04:AMPARAMS|DCode=62|XSize=59.06mil|YSize=70.87mil|CornerRadius=14.76mil|HoleSize=0mil|Usage=FLASHONLY|Rotation=0.000|XOffset=0mil|YOffset=0mil|HoleType=Round|Shape=RoundedRectangle|*
%AMROUNDEDRECTD62*
21,1,0.05906,0.04134,0,0,0.0*
21,1,0.02953,0.07087,0,0,0.0*
1,1,0.02953,0.01476,-0.02067*
1,1,0.02953,-0.01476,-0.02067*
1,1,0.02953,-0.01476,0.02067*
1,1,0.02953,0.01476,0.02067*
%
%ADD62ROUNDEDRECTD62*%
%ADD63C,0.02500*%
%ADD64C,0.05000*%
%ADD75R,0.07874X0.05709*%
%ADD76R,0.05906X0.07480*%
%ADD77O,0.05906X0.07480*%
%ADD78R,0.06693X0.06693*%
%ADD79R,0.01181X0.02559*%
%ADD80R,0.02559X0.01181*%
%ADD81R,0.10433X0.06890*%
%ADD82R,0.02362X0.08661*%
%ADD83R,0.13000X0.07087*%
%ADD84R,0.02992X0.07008*%
%ADD85R,0.03937X0.02559*%
%ADD86R,0.04000X0.07500*%
%ADD87R,0.07500X0.04000*%
%ADD88R,0.03543X0.06000*%
%ADD89R,0.02362X0.05906*%
%ADD90R,0.06693X0.08661*%
%ADD91R,0.11811X0.07717*%
%ADD92R,0.35433X0.41339*%
%ADD93R,0.11811X0.05906*%
%ADD94R,0.06890X0.10433*%
%ADD95R,0.08661X0.06693*%
%ADD96R,0.02559X0.03937*%
%ADD97C,0.06000*%
%ADD98C,0.03000*%
%ADD99C,0.05000*%
%ADD100C,0.03500*%
G36*
X221000Y154500D02*
X214000D01*
X213000Y155500D01*
X201500D01*
Y165000D01*
X221000D01*
Y154500D01*
D02*
G37*
G36*
X184000Y154000D02*
Y145500D01*
X191000D01*
Y154000D01*
X200000D01*
X201500Y152500D01*
X209500D01*
X214185Y147815D01*
X221000D01*
Y137500D01*
X213500D01*
X208500Y132500D01*
X190596D01*
X190096Y132000D01*
X181000D01*
Y143500D01*
Y154000D01*
X181500Y154500D01*
X183500D01*
X184000Y154000D01*
D02*
G37*
G36*
X82000Y129500D02*
Y114000D01*
X56500Y114000D01*
X48462Y105962D01*
X48000Y106153D01*
Y129500D01*
X82000Y129500D01*
D02*
G37*
G36*
X184500Y96500D02*
X176515Y88516D01*
X168516D01*
X163500Y83500D01*
Y76000D01*
X160500D01*
Y88516D01*
X164985Y93000D01*
X172000D01*
X174500Y95500D01*
Y102500D01*
X184500D01*
X184500Y96500D01*
D02*
G37*
G36*
X156439Y68818D02*
X157500Y67000D01*
Y62000D01*
X154000Y62000D01*
Y66444D01*
X153500Y66944D01*
X140000D01*
Y79750D01*
X146722D01*
X156439Y68818D01*
D02*
G37*
G36*
X163500Y65500D02*
Y54500D01*
X181000Y54500D01*
Y47500D01*
X164500D01*
X163500Y48500D01*
X160500D01*
Y65500D01*
X163500Y65500D01*
D02*
G37*
D23*
X211300Y86500D02*
D03*
Y92500D02*
D03*
X162485Y134110D02*
D03*
Y140110D02*
D03*
X187000Y97048D02*
D03*
Y91048D02*
D03*
X211250Y80500D02*
D03*
Y74500D02*
D03*
X206500Y28452D02*
D03*
Y34452D02*
D03*
X196500Y28500D02*
D03*
Y34500D02*
D03*
X196548Y23548D02*
D03*
Y17548D02*
D03*
X201500Y23548D02*
D03*
Y17548D02*
D03*
X110000Y48054D02*
D03*
X104000D02*
D03*
X128000Y78855D02*
D03*
Y84855D02*
D03*
X201500Y80548D02*
D03*
Y74548D02*
D03*
X173452Y109610D02*
D03*
Y115610D02*
D03*
X168000Y121048D02*
D03*
Y115048D02*
D03*
X155888Y50000D02*
D03*
X161888D02*
D03*
X155888Y59000D02*
D03*
X161888D02*
D03*
X155888Y77500D02*
D03*
X161888D02*
D03*
X155888Y86500D02*
D03*
X161888D02*
D03*
X155888Y82000D02*
D03*
X161888D02*
D03*
X155888Y54596D02*
D03*
X161888D02*
D03*
X196388Y80548D02*
D03*
Y74548D02*
D03*
D25*
X215700Y92500D02*
D03*
Y86500D02*
D03*
X206500Y74594D02*
D03*
Y80594D02*
D03*
X120548Y40500D02*
D03*
X114548D02*
D03*
X91548Y56000D02*
D03*
X85548D02*
D03*
X87685Y40185D02*
D03*
Y34185D02*
D03*
X83185Y40185D02*
D03*
Y34185D02*
D03*
X162534Y116000D02*
D03*
Y110000D02*
D03*
X162485Y121158D02*
D03*
Y127157D02*
D03*
X208000Y151000D02*
D03*
Y157000D02*
D03*
X196500Y97000D02*
D03*
Y91000D02*
D03*
X192000D02*
D03*
Y97000D02*
D03*
X203027Y157016D02*
D03*
Y151015D02*
D03*
X155888Y64000D02*
D03*
X161888D02*
D03*
X189500Y71595D02*
D03*
Y77595D02*
D03*
X185198Y84500D02*
D03*
X191198D02*
D03*
D27*
X81760Y24941D02*
D03*
X85500D02*
D03*
X89240D02*
D03*
Y15689D02*
D03*
X81760D02*
D03*
D31*
X185500Y4000D02*
D03*
X170500D02*
D03*
D50*
X211000Y39400D02*
Y39436D01*
X212300Y40736D01*
Y40815D01*
X211000Y39400D02*
X212100Y40500D01*
X211000Y15500D02*
Y39400D01*
X205000Y9500D02*
X211000Y15500D01*
X186400Y42300D02*
X186500Y42200D01*
X174300Y42300D02*
X186400D01*
X162000Y11500D02*
X190500D01*
X192500Y9500D02*
X205000D01*
X190500Y11500D02*
X192500Y9500D01*
D51*
X162967Y78579D02*
X168595D01*
X162778Y76610D02*
X168595D01*
X170900Y85948D02*
Y86300D01*
Y85948D02*
X171547Y85301D01*
Y83500D02*
Y85301D01*
X161888Y64000D02*
X162300Y64411D01*
X163277Y77500D02*
X166600D01*
X167000Y82500D02*
X167249Y82251D01*
Y81893D02*
Y82251D01*
Y81893D02*
X168595Y80547D01*
Y72579D02*
Y74642D01*
Y72579D02*
X169484Y71689D01*
X171325D01*
X177684D02*
X177779Y71595D01*
X170100Y62000D02*
X178466D01*
X177779Y71595D02*
X189500D01*
X173516Y68818D02*
X174334Y68000D01*
X173516Y68818D02*
Y71689D01*
X174334Y68000D02*
X174500D01*
X174148D02*
X174334D01*
X174500D02*
X175485Y68985D01*
X174500Y67547D02*
Y68000D01*
X182000Y84500D02*
X185198D01*
X177000Y89500D02*
X182000Y84500D01*
X175000Y89500D02*
X177000D01*
X180406Y80547D02*
X180553Y80695D01*
X190483D02*
X191692Y81903D01*
X180553Y80695D02*
X190483D01*
X193142Y80452D02*
X196293D01*
X191692Y81903D02*
X193142Y80452D01*
X191692Y81903D02*
Y84007D01*
X191198Y84500D02*
X191692Y84007D01*
X182890Y76610D02*
X184500Y75000D01*
X180406Y76610D02*
X182890D01*
X177684Y71689D02*
X179595D01*
X177453D02*
X177684D01*
X180406Y78579D02*
X185000D01*
X185984Y77595D01*
X189500D01*
X196293Y80452D02*
X196388Y80548D01*
X173428Y62600D02*
X175384D01*
X180406Y74642D02*
X180547Y74500D01*
X178466Y62000D02*
X179984Y63519D01*
Y67500D01*
X168984Y63116D02*
X170100Y62000D01*
X168984Y63116D02*
Y67500D01*
X177453Y70031D02*
X179984Y67500D01*
X177453Y70031D02*
Y71689D01*
X171547Y70063D02*
Y71689D01*
X168984Y67500D02*
X171547Y70063D01*
X175485Y68985D02*
Y71689D01*
X180406Y72500D02*
Y74420D01*
X179595Y71689D02*
X180406Y72500D01*
X168595Y76610D02*
Y78579D01*
X161888Y77500D02*
X162967Y78579D01*
D52*
X20567Y56067D02*
X66500D01*
X19000Y54500D02*
X20567Y56067D01*
X105212Y151913D02*
X106500Y150626D01*
X87685Y151913D02*
X105212D01*
X68000Y159000D02*
X70466Y161466D01*
Y172500D01*
X53534D02*
X53767Y172267D01*
Y161933D02*
Y172267D01*
Y161933D02*
X53909Y161791D01*
X54000D01*
X185000Y174000D02*
X203000D01*
X138433Y150626D02*
X147500Y141559D01*
X134264Y146457D02*
X138433Y150626D01*
X106500Y146500D02*
Y150626D01*
X50248Y142500D02*
X51689D01*
X41500Y151248D02*
X50248Y142500D01*
X147500Y132343D02*
Y141559D01*
X134264Y132831D02*
Y146457D01*
X133933Y132500D02*
X134264Y132831D01*
X112909Y132343D02*
X113067Y132500D01*
X98500Y132343D02*
X112909D01*
X98500Y138500D02*
X106500Y146500D01*
X98500Y132343D02*
Y138500D01*
X214500Y174000D02*
X220000D01*
X209000D02*
X214500D01*
X203000D02*
X209000D01*
D53*
X151000Y84000D02*
Y88000D01*
X154000Y54186D02*
X155888Y52298D01*
X154000Y54186D02*
Y54596D01*
X152888Y53000D02*
X155888Y50000D01*
X149000Y82000D02*
Y86000D01*
Y82000D02*
X150653Y80347D01*
X148800Y86000D02*
X149000D01*
X151000Y84000D01*
Y88000D02*
X152500Y86500D01*
X145350Y75500D02*
Y78000D01*
X144000Y68452D02*
X144500D01*
X144000Y68952D02*
X144500Y68452D01*
X120100Y89900D02*
X134800D01*
X116000Y85800D02*
X120100Y89900D01*
X116000Y70600D02*
Y85800D01*
X121000Y80900D02*
X124955Y84855D01*
X128000D01*
X150653Y80347D02*
X153500Y77500D01*
X150653Y80347D02*
X151000Y80695D01*
Y84000D01*
X133000Y40500D02*
X143100Y30400D01*
Y16600D02*
Y30400D01*
Y16600D02*
X148200Y11500D01*
X147500Y21700D02*
Y33600D01*
X131700Y49400D02*
X147500Y33600D01*
X120548Y40500D02*
X133000D01*
X131700Y49400D02*
Y54900D01*
X91548Y50137D02*
X107285Y34400D01*
X131200D01*
X116000Y70600D02*
X131700Y54900D01*
X148200Y11500D02*
X162000D01*
X128000Y67100D02*
X158480Y36620D01*
X128000Y67100D02*
Y78855D01*
X158480Y29245D02*
Y36620D01*
X173452Y115610D02*
Y130948D01*
X167484Y136916D02*
X173452Y130948D01*
X167484Y136916D02*
Y151102D01*
X168000Y126900D02*
X168200Y127100D01*
X168000Y121048D02*
Y126900D01*
X162485Y121158D02*
X167890D01*
X162500Y116000D02*
Y121142D01*
X177485Y126679D02*
X180000Y124163D01*
X177485Y126679D02*
Y151102D01*
X206579Y86821D02*
X211246D01*
X206500Y86900D02*
X206579Y86821D01*
X211246Y86554D02*
X211300Y86500D01*
X206500Y80594D02*
Y83720D01*
X221000Y92400D02*
X223500Y89900D01*
X220900Y92500D02*
X221000Y92400D01*
X223500Y88000D02*
Y89900D01*
X215700Y92500D02*
X220900D01*
X211300D02*
X215700D01*
X215600Y84200D02*
X215700Y84300D01*
X215600Y84200D02*
Y86400D01*
X215700Y86500D01*
X211250Y83720D02*
Y86450D01*
X211300Y86500D01*
X205048Y17548D02*
X206500Y19000D01*
X201500Y17548D02*
X205048D01*
X183000Y27000D02*
Y34700D01*
X164900Y40815D02*
X168785D01*
X173000Y36600D01*
Y27000D02*
Y36600D01*
X178000Y27000D02*
Y35000D01*
X168000Y27000D02*
Y35100D01*
X221900Y53800D02*
X224600Y56500D01*
X221900Y21400D02*
Y53800D01*
X207000Y6500D02*
X221900Y21400D01*
X190500Y6500D02*
X207000D01*
X215600Y55500D02*
X224600Y64500D01*
X199100Y55500D02*
X215600D01*
X196500Y58100D02*
X199100Y55500D01*
X196500Y58100D02*
Y63449D01*
X164306Y17798D02*
X165103Y17000D01*
X168000D01*
X188500Y8500D02*
X190500Y6500D01*
X167500Y8500D02*
X188500D01*
X163500Y4500D02*
X167500Y8500D01*
X211250Y80500D02*
Y83720D01*
X146500Y64000D02*
X148000D01*
X144000D02*
X146500D01*
X148000D02*
X149500Y62500D01*
X153500Y77500D02*
X155888D01*
X153000Y82000D02*
X155888D01*
X151000Y84000D02*
X153000Y82000D01*
X152500Y86500D02*
X155888D01*
X149500Y61500D02*
Y62500D01*
X180000Y124163D02*
X184970D01*
X185000Y124193D01*
X196500Y91000D02*
X199700D01*
X191952Y88250D02*
Y90952D01*
X192000Y91000D01*
X196500D01*
X191952Y91048D02*
X192000Y91000D01*
X187000Y91048D02*
X191952D01*
X183750Y91000D02*
X186952D01*
X187000Y91048D01*
X125500Y49494D02*
Y53000D01*
X124036Y48030D02*
X125500Y49494D01*
X122634Y48030D02*
X124036D01*
X122604Y48000D02*
X122634Y48030D01*
X114518Y48000D02*
X114548Y47971D01*
X114396Y48000D02*
X114518D01*
X114548Y40500D02*
Y47971D01*
X114368Y48027D02*
X114396Y48000D01*
X110027Y48027D02*
X114368D01*
X110000Y48054D02*
X110027Y48027D01*
X104000Y53950D02*
X104950Y54900D01*
X104000Y48054D02*
Y53950D01*
X91548Y50137D02*
Y56000D01*
X155888Y52298D02*
Y54596D01*
Y50000D02*
Y52298D01*
X154000Y54596D02*
X155888D01*
X150096D02*
X154000D01*
X150500Y53000D02*
X153500Y50000D01*
X149500Y54000D02*
X150500Y53000D01*
X152888D01*
X151000Y57000D02*
X155853D01*
X149500D02*
X151000D01*
Y60000D02*
X152000Y59000D01*
X151000Y57000D02*
Y60000D01*
X149500Y61500D02*
X151000Y60000D01*
X155888Y56964D02*
Y59000D01*
Y54596D02*
Y56964D01*
X149500Y57000D02*
Y61500D01*
Y54000D02*
Y57000D01*
X155853D02*
X155888Y56964D01*
X149500Y54000D02*
X150096Y54596D01*
X153500Y50000D02*
X155888D01*
X152000Y59000D02*
X155888D01*
X191500Y44551D02*
Y50500D01*
X178000Y17000D02*
X183000D01*
X173000D02*
X178000D01*
X168000D02*
X173000D01*
X196548Y15952D02*
Y17548D01*
Y15952D02*
X199500Y13000D01*
X201500D01*
X191000Y16500D02*
X192798Y14702D01*
Y14500D02*
Y14702D01*
X196116Y17798D02*
X196298D01*
X192798Y21116D02*
X196116Y17798D01*
X188000Y24992D02*
X188246Y24746D01*
X196298Y17798D02*
X196548Y17548D01*
X188000Y24992D02*
Y27000D01*
X188246Y16500D02*
X191000D01*
X188000Y16746D02*
X188246Y16500D01*
X188000Y16746D02*
Y17000D01*
X201500Y34500D02*
X201548Y34452D01*
X206500D01*
X201500Y44551D02*
Y51000D01*
X52500Y4500D02*
X163500D01*
X188000Y27000D02*
X190535D01*
X192000Y25536D01*
Y22000D02*
Y25536D01*
Y22000D02*
X192798Y21202D01*
Y21116D02*
Y21202D01*
X196548Y23548D02*
Y28452D01*
X201500Y23548D02*
Y28452D01*
X196548Y71689D02*
Y74388D01*
X196388Y74548D02*
X196548Y74388D01*
X211156Y74594D02*
X211250Y74500D01*
X206500Y74594D02*
X211156D01*
X206500Y63449D02*
Y74594D01*
X201500Y63449D02*
Y74548D01*
Y80548D02*
Y83500D01*
X191500Y57500D02*
Y63449D01*
X201500Y28452D02*
X206500D01*
X196548D02*
X201500D01*
X196500Y28500D02*
X196548Y28452D01*
X206500Y34452D02*
Y44551D01*
X196500Y34500D02*
Y44551D01*
X173500Y50000D02*
X174400Y50900D01*
X50500Y6500D02*
X52500Y4500D01*
X76500Y56067D02*
X76567Y56000D01*
X85500D01*
X66500Y17153D02*
X67965Y15689D01*
X66500Y17153D02*
Y23000D01*
X67965Y15689D02*
X81760D01*
X89240D01*
X77500Y36000D02*
Y36500D01*
X81185Y40185D01*
X93500Y36000D02*
Y36500D01*
X90065Y39935D02*
X93500Y36500D01*
X87935Y39935D02*
X90065D01*
X87685Y40185D02*
X87935Y39935D01*
X81185Y40185D02*
X83185D01*
X87685D01*
X83185Y34185D02*
X87685D01*
X85500Y30000D02*
Y32721D01*
Y24941D02*
Y30000D01*
X93059Y24941D02*
X95500Y22500D01*
X89240Y24941D02*
X93059D01*
X75500Y22500D02*
X77941Y24941D01*
X81760D01*
X180000Y117762D02*
Y124163D01*
X167890Y121158D02*
X168000Y121048D01*
Y115048D02*
X171738D01*
X172049Y115360D01*
X173202D01*
X173452Y115610D01*
X164016Y109750D02*
X164186Y109580D01*
X162784Y109750D02*
X164016D01*
X162534Y110000D02*
X162784Y109750D01*
X162534Y99000D02*
Y110000D01*
X164186Y109580D02*
X173423D01*
X173452Y109610D01*
X164306Y99000D02*
X166501Y101195D01*
X180000Y109553D02*
Y109580D01*
X179971Y109610D02*
X180000Y109580D01*
X173452Y109610D02*
X179971D01*
X162485Y121158D02*
X162500Y121142D01*
X162485Y127157D02*
Y134110D01*
Y140110D02*
Y151102D01*
D54*
X104840Y65900D02*
Y75950D01*
Y65900D02*
X104950D01*
D55*
X21933Y170933D02*
X41500D01*
X18500Y167500D02*
X21933Y170933D01*
X38067Y147815D02*
X41500Y151248D01*
X18500Y147815D02*
X38067D01*
X18500Y115000D02*
X21500Y112000D01*
X18500Y115000D02*
Y147815D01*
D56*
X123000Y104100D02*
D03*
D57*
X132185Y18500D02*
D03*
X112500D02*
D03*
D58*
X147500Y112657D02*
D03*
Y132343D02*
D03*
X98500Y112657D02*
D03*
Y132343D02*
D03*
D59*
X138433Y170311D02*
D03*
Y150626D02*
D03*
X106500Y170311D02*
D03*
Y150626D02*
D03*
D60*
X68000Y159000D02*
D03*
X87685Y151913D02*
D03*
X41500Y170933D02*
D03*
Y151248D02*
D03*
D61*
X18500Y147815D02*
D03*
Y167500D02*
D03*
Y11500D02*
D03*
Y31185D02*
D03*
X19000Y54500D02*
D03*
Y74185D02*
D03*
D62*
X204079Y108000D02*
D03*
X213921D02*
D03*
D63*
X148800Y86000D02*
D03*
X143900Y89100D02*
D03*
X142700Y84900D02*
D03*
X151000Y88000D02*
D03*
X134800Y89900D02*
D03*
X121000Y80900D02*
D03*
X121300Y76600D02*
D03*
X147500Y21700D02*
D03*
X142600Y43800D02*
D03*
X131200Y34400D02*
D03*
X136800Y51900D02*
D03*
X154200Y26100D02*
D03*
X170900Y86300D02*
D03*
X166600Y77500D02*
D03*
X167000Y82500D02*
D03*
X206500Y86900D02*
D03*
Y83720D02*
D03*
X221000Y92400D02*
D03*
X215600Y84200D02*
D03*
X223500Y88000D02*
D03*
X199700Y91000D02*
D03*
X212300Y40815D02*
D03*
X186500Y42200D02*
D03*
X174300Y42300D02*
D03*
X206500Y19000D02*
D03*
X183000Y34700D02*
D03*
X164900Y40815D02*
D03*
X178000Y35000D02*
D03*
X168000Y35100D02*
D03*
X158480Y29245D02*
D03*
X212000Y48700D02*
D03*
X224600Y56500D02*
D03*
Y64500D02*
D03*
X164306Y17798D02*
D03*
X191500Y57500D02*
D03*
X201500Y51000D02*
D03*
X211250Y83720D02*
D03*
X146500Y64000D02*
D03*
X144000D02*
D03*
X151000Y84000D02*
D03*
X141500Y76500D02*
D03*
X201500Y34500D02*
D03*
Y13000D02*
D03*
X113783Y66048D02*
D03*
X174500Y68000D02*
D03*
X191952Y88250D02*
D03*
X183750Y91000D02*
D03*
X125500Y53000D02*
D03*
X141500Y69952D02*
D03*
Y73189D02*
D03*
X146500Y69763D02*
D03*
Y73000D02*
D03*
Y76311D02*
D03*
X144000Y74811D02*
D03*
Y77811D02*
D03*
Y71500D02*
D03*
Y68263D02*
D03*
X191500Y50500D02*
D03*
X192798Y14500D02*
D03*
X184500Y75000D02*
D03*
X196548Y71689D02*
D03*
X201500Y83500D02*
D03*
Y28452D02*
D03*
X112000Y85000D02*
D03*
X66303Y48000D02*
D03*
X58000D02*
D03*
X45000Y24500D02*
D03*
X39500D02*
D03*
X66500Y23000D02*
D03*
X77500Y36000D02*
D03*
X93500D02*
D03*
X54000Y128000D02*
D03*
X80000Y128500D02*
D03*
Y125250D02*
D03*
Y122000D02*
D03*
Y115750D02*
D03*
Y119000D02*
D03*
X77000Y126500D02*
D03*
Y123250D02*
D03*
Y120000D02*
D03*
Y113750D02*
D03*
Y117000D02*
D03*
X74000Y128000D02*
D03*
Y124750D02*
D03*
Y121500D02*
D03*
Y115250D02*
D03*
Y118500D02*
D03*
X60000Y128000D02*
D03*
Y124750D02*
D03*
Y121500D02*
D03*
Y115250D02*
D03*
Y118500D02*
D03*
X57000Y126500D02*
D03*
Y123250D02*
D03*
Y120000D02*
D03*
Y113750D02*
D03*
Y117000D02*
D03*
X54000Y115500D02*
D03*
Y112250D02*
D03*
X50500Y114500D02*
D03*
Y111500D02*
D03*
Y117500D02*
D03*
Y6500D02*
D03*
X85500Y30000D02*
D03*
X50500Y126500D02*
D03*
Y120500D02*
D03*
Y123500D02*
D03*
X54000Y118500D02*
D03*
Y121750D02*
D03*
Y125000D02*
D03*
D64*
X168200Y127100D02*
D03*
X210000Y162000D02*
D03*
X95500Y22500D02*
D03*
X75500D02*
D03*
X184000Y142500D02*
D03*
X204079Y162000D02*
D03*
X203000Y174000D02*
D03*
X209000D02*
D03*
X214500D02*
D03*
X220000D02*
D03*
D75*
X185000Y124193D02*
D03*
Y135807D02*
D03*
D76*
X76500Y56067D02*
D03*
D77*
X66500D02*
D03*
X76500Y91500D02*
D03*
X66500D02*
D03*
D78*
X174500Y77595D02*
D03*
D79*
X171547Y71689D02*
D03*
X173516D02*
D03*
X175485D02*
D03*
X177453D02*
D03*
X171547Y83500D02*
D03*
X173516D02*
D03*
X175485D02*
D03*
X177453D02*
D03*
D80*
X180406Y74642D02*
D03*
Y76610D02*
D03*
Y78579D02*
D03*
Y80547D02*
D03*
X168595D02*
D03*
Y78579D02*
D03*
Y76610D02*
D03*
Y74642D02*
D03*
D81*
X162534Y99000D02*
D03*
X179466D02*
D03*
X70466Y172500D02*
D03*
X53534D02*
D03*
D82*
X206500Y44551D02*
D03*
X201500D02*
D03*
X196500D02*
D03*
X191500D02*
D03*
X206500Y63449D02*
D03*
X201500D02*
D03*
X196500D02*
D03*
X191500D02*
D03*
D83*
X174400Y60100D02*
D03*
Y50900D02*
D03*
D84*
X188000Y17000D02*
D03*
Y27000D02*
D03*
X183000Y17000D02*
D03*
Y27000D02*
D03*
X178000Y17000D02*
D03*
Y27000D02*
D03*
X173000Y17000D02*
D03*
Y27000D02*
D03*
X168000Y17000D02*
D03*
Y27000D02*
D03*
D85*
X114396Y48000D02*
D03*
X122604D02*
D03*
D86*
X104840Y75950D02*
D03*
X93840D02*
D03*
D87*
X104950Y54900D02*
D03*
Y65900D02*
D03*
D88*
X86095Y91583D02*
D03*
X94095D02*
D03*
D89*
X197485Y151102D02*
D03*
X192484D02*
D03*
X187485D02*
D03*
X182484D02*
D03*
X177485D02*
D03*
X172485D02*
D03*
X167484D02*
D03*
X162485D02*
D03*
X197485Y172953D02*
D03*
X192484D02*
D03*
X187485D02*
D03*
X182484D02*
D03*
X177485D02*
D03*
X172485D02*
D03*
X167484D02*
D03*
X162485D02*
D03*
D90*
X113067Y132500D02*
D03*
X133933D02*
D03*
D91*
X54000Y142460D02*
D03*
Y161791D02*
D03*
D92*
X21500Y112000D02*
D03*
D93*
X66776Y101842D02*
D03*
D03*
Y121843D02*
D03*
D94*
X217500Y142636D02*
D03*
Y159568D02*
D03*
D95*
X204000Y135933D02*
D03*
Y115067D02*
D03*
D96*
X180000Y109553D02*
D03*
Y117762D02*
D03*
D97*
X204000Y101921D02*
Y115067D01*
X179466Y99000D02*
X201236D01*
X204079Y101842D01*
X204000Y101921D02*
X204079Y101842D01*
D98*
X161888Y77500D02*
Y82000D01*
D99*
X66500Y101567D02*
X66776Y101842D01*
X66500Y91500D02*
Y101567D01*
D100*
X51550Y75950D02*
X93840D01*
X37500Y90000D02*
X51550Y75950D01*
X37500Y90000D02*
Y91030D01*
X76500Y91500D02*
X76583Y91583D01*
X86095D01*
X94095Y90355D02*
Y91583D01*
X93840Y90100D02*
X94095Y90355D01*
X93840Y75950D02*
Y90100D01*
X37466Y91064D02*
X37500Y91030D01*
X37466Y91064D02*
Y96034D01*
X21500Y112000D02*
X37466Y96034D01*
M02*
