G04*
G04 #@! TF.GenerationSoftware,Altium Limited,Altium Designer,19.0.14 (431)*
G04*
G04 Layer_Color=8421504*
%FSLAX25Y25*%
%MOIN*%
G70*
G01*
G75*
%ADD23R,0.03000X0.03000*%
%ADD24R,0.03150X0.06000*%
%ADD25R,0.03000X0.03000*%
%ADD26R,0.08858X0.03937*%
%ADD27R,0.02362X0.04528*%
%ADD28R,0.03937X0.07480*%
%ADD29R,0.04724X0.03937*%
%ADD30R,0.03150X0.05512*%
%ADD31C,0.03937*%
%ADD32R,0.01575X0.02756*%
D23*
X143900Y92452D02*
D03*
Y98452D02*
D03*
X47500Y48000D02*
D03*
X53500D02*
D03*
X108740Y66048D02*
D03*
Y60048D02*
D03*
X101260Y59952D02*
D03*
Y65952D02*
D03*
X128000Y70500D02*
D03*
Y76500D02*
D03*
Y87548D02*
D03*
Y81548D02*
D03*
X145500Y54452D02*
D03*
Y60452D02*
D03*
Y43752D02*
D03*
Y49752D02*
D03*
X150400Y26052D02*
D03*
Y32052D02*
D03*
X145500Y32048D02*
D03*
Y26048D02*
D03*
X50500Y20048D02*
D03*
Y14048D02*
D03*
D24*
X159099Y98500D02*
D03*
X167099D02*
D03*
X183501Y98500D02*
D03*
X175501D02*
D03*
D25*
X85448Y74600D02*
D03*
X79448D02*
D03*
X47452Y42000D02*
D03*
X53452D02*
D03*
X45000Y20000D02*
D03*
Y14000D02*
D03*
X39500D02*
D03*
Y20000D02*
D03*
X61548Y6500D02*
D03*
X55548D02*
D03*
D26*
X158480Y88059D02*
D03*
Y80185D02*
D03*
Y72311D02*
D03*
Y64437D02*
D03*
Y56563D02*
D03*
Y48689D02*
D03*
Y40815D02*
D03*
Y32941D02*
D03*
X218520D02*
D03*
Y40815D02*
D03*
Y48689D02*
D03*
Y56563D02*
D03*
Y64437D02*
D03*
Y72311D02*
D03*
Y80185D02*
D03*
Y88059D02*
D03*
D27*
X54240Y34929D02*
D03*
X46760D02*
D03*
X50500Y26071D02*
D03*
X101260Y72071D02*
D03*
X108740D02*
D03*
X105000Y80929D02*
D03*
D28*
X95500Y42992D02*
D03*
X85500D02*
D03*
Y7008D02*
D03*
X75500D02*
D03*
X95500D02*
D03*
X75500Y42992D02*
D03*
D29*
X132500Y41000D02*
D03*
Y51512D02*
D03*
X107303Y41000D02*
D03*
Y51512D02*
D03*
X66303Y67000D02*
D03*
Y56488D02*
D03*
X91500Y67000D02*
D03*
Y56488D02*
D03*
D30*
X66500Y41402D02*
D03*
X61500D02*
D03*
X66500Y16598D02*
D03*
X61500D02*
D03*
X116000Y60098D02*
D03*
X121000D02*
D03*
X116000Y84902D02*
D03*
X121000D02*
D03*
X139500D02*
D03*
X134500D02*
D03*
X139500Y60098D02*
D03*
X134500D02*
D03*
D31*
X39500Y7000D02*
D03*
D32*
X128000Y59966D02*
D03*
Y66265D02*
D03*
M02*
