G04*
G04 #@! TF.GenerationSoftware,Altium Limited,Altium Designer,19.0.14 (431)*
G04*
G04 Layer_Color=128*
%FSLAX25Y25*%
%MOIN*%
G70*
G01*
G75*
%ADD23R,0.03000X0.03000*%
%ADD25R,0.03000X0.03000*%
%ADD27R,0.02362X0.04528*%
%ADD75R,0.07874X0.05709*%
%ADD76R,0.05906X0.07480*%
%ADD77O,0.05906X0.07480*%
%ADD78R,0.06693X0.06693*%
%ADD79R,0.01181X0.02559*%
%ADD80R,0.02559X0.01181*%
%ADD81R,0.10433X0.06890*%
%ADD82R,0.02362X0.08661*%
%ADD83R,0.13000X0.07087*%
%ADD84R,0.02992X0.07008*%
%ADD85R,0.03937X0.02559*%
%ADD86R,0.04000X0.07500*%
%ADD87R,0.07500X0.04000*%
%ADD88R,0.03543X0.06000*%
%ADD89R,0.02362X0.05906*%
%ADD90R,0.06693X0.08661*%
%ADD91R,0.11811X0.07717*%
%ADD92R,0.35433X0.41339*%
%ADD93R,0.11811X0.05906*%
%ADD94R,0.06890X0.10433*%
%ADD95R,0.08661X0.06693*%
%ADD96R,0.02559X0.03937*%
D23*
X211300Y86500D02*
D03*
Y92500D02*
D03*
X162485Y134110D02*
D03*
Y140110D02*
D03*
X187000Y97048D02*
D03*
Y91048D02*
D03*
X211250Y80500D02*
D03*
Y74500D02*
D03*
X206500Y28452D02*
D03*
Y34452D02*
D03*
X196500Y28500D02*
D03*
Y34500D02*
D03*
X196548Y23548D02*
D03*
Y17548D02*
D03*
X201500Y23548D02*
D03*
Y17548D02*
D03*
X110000Y48054D02*
D03*
X104000D02*
D03*
X128000Y78855D02*
D03*
Y84855D02*
D03*
X201500Y80548D02*
D03*
Y74548D02*
D03*
X173452Y109610D02*
D03*
Y115610D02*
D03*
X168000Y121048D02*
D03*
Y115048D02*
D03*
X155888Y50000D02*
D03*
X161888D02*
D03*
X155888Y59000D02*
D03*
X161888D02*
D03*
X155888Y77500D02*
D03*
X161888D02*
D03*
X155888Y86500D02*
D03*
X161888D02*
D03*
X155888Y82000D02*
D03*
X161888D02*
D03*
X155888Y54596D02*
D03*
X161888D02*
D03*
X196388Y80548D02*
D03*
Y74548D02*
D03*
D25*
X215700Y92500D02*
D03*
Y86500D02*
D03*
X206500Y74594D02*
D03*
Y80594D02*
D03*
X120548Y40500D02*
D03*
X114548D02*
D03*
X91548Y56000D02*
D03*
X85548D02*
D03*
X87685Y40185D02*
D03*
Y34185D02*
D03*
X83185Y40185D02*
D03*
Y34185D02*
D03*
X162534Y116000D02*
D03*
Y110000D02*
D03*
X162485Y121158D02*
D03*
Y127157D02*
D03*
X208000Y151000D02*
D03*
Y157000D02*
D03*
X196500Y97000D02*
D03*
Y91000D02*
D03*
X192000D02*
D03*
Y97000D02*
D03*
X203027Y157016D02*
D03*
Y151015D02*
D03*
X155888Y64000D02*
D03*
X161888D02*
D03*
X189500Y71595D02*
D03*
Y77595D02*
D03*
X185198Y84500D02*
D03*
X191198D02*
D03*
D27*
X81760Y24941D02*
D03*
X85500D02*
D03*
X89240D02*
D03*
Y15689D02*
D03*
X81760D02*
D03*
D75*
X185000Y124193D02*
D03*
Y135807D02*
D03*
D76*
X76500Y56067D02*
D03*
D77*
X66500D02*
D03*
X76500Y91500D02*
D03*
X66500D02*
D03*
D78*
X174500Y77595D02*
D03*
D79*
X171547Y71689D02*
D03*
X173516D02*
D03*
X175485D02*
D03*
X177453D02*
D03*
X171547Y83500D02*
D03*
X173516D02*
D03*
X175485D02*
D03*
X177453D02*
D03*
D80*
X180406Y74642D02*
D03*
Y76610D02*
D03*
Y78579D02*
D03*
Y80547D02*
D03*
X168595D02*
D03*
Y78579D02*
D03*
Y76610D02*
D03*
Y74642D02*
D03*
D81*
X162534Y99000D02*
D03*
X179466D02*
D03*
X70466Y172500D02*
D03*
X53534D02*
D03*
D82*
X206500Y44551D02*
D03*
X201500D02*
D03*
X196500D02*
D03*
X191500D02*
D03*
X206500Y63449D02*
D03*
X201500D02*
D03*
X196500D02*
D03*
X191500D02*
D03*
D83*
X174400Y60100D02*
D03*
Y50900D02*
D03*
D84*
X188000Y17000D02*
D03*
Y27000D02*
D03*
X183000Y17000D02*
D03*
Y27000D02*
D03*
X178000Y17000D02*
D03*
Y27000D02*
D03*
X173000Y17000D02*
D03*
Y27000D02*
D03*
X168000Y17000D02*
D03*
Y27000D02*
D03*
D85*
X114396Y48000D02*
D03*
X122604D02*
D03*
D86*
X104840Y75950D02*
D03*
X93840D02*
D03*
D87*
X104950Y54900D02*
D03*
Y65900D02*
D03*
D88*
X86095Y91583D02*
D03*
X94095D02*
D03*
D89*
X197485Y151102D02*
D03*
X192484D02*
D03*
X187485D02*
D03*
X182484D02*
D03*
X177485D02*
D03*
X172485D02*
D03*
X167484D02*
D03*
X162485D02*
D03*
X197485Y172953D02*
D03*
X192484D02*
D03*
X187485D02*
D03*
X182484D02*
D03*
X177485D02*
D03*
X172485D02*
D03*
X167484D02*
D03*
X162485D02*
D03*
D90*
X113067Y132500D02*
D03*
X133933D02*
D03*
D91*
X54000Y142460D02*
D03*
Y161791D02*
D03*
D92*
X21500Y112000D02*
D03*
D93*
X66776Y101842D02*
D03*
D03*
Y121843D02*
D03*
D94*
X217500Y142636D02*
D03*
Y159568D02*
D03*
D95*
X204000Y135933D02*
D03*
Y115067D02*
D03*
D96*
X180000Y109553D02*
D03*
Y117762D02*
D03*
M02*
