G04*
G04 #@! TF.GenerationSoftware,Altium Limited,Altium Designer,19.0.14 (431)*
G04*
G04 Layer_Color=32896*
%FSLAX25Y25*%
%MOIN*%
G70*
G01*
G75*
%ADD12C,0.00984*%
%ADD14C,0.00787*%
%ADD15C,0.01000*%
%ADD16C,0.00394*%
%ADD18C,0.00350*%
%ADD19C,0.00600*%
%ADD20C,0.00800*%
%ADD123C,0.00591*%
%ADD124C,0.00799*%
%ADD125C,0.00598*%
%ADD126R,0.02756X0.01570*%
%ADD127R,0.01571X0.01185*%
%ADD128R,0.00390X0.01575*%
%ADD129R,0.01185X0.00390*%
%ADD130R,0.00390X0.01185*%
%ADD131R,0.01575X0.00390*%
%ADD132R,0.01300X0.05061*%
%ADD133R,0.05061X0.01300*%
G36*
X192481Y12169D02*
X192550Y12054D01*
X192624Y11950D01*
X192699Y11864D01*
X192774Y11789D01*
X192832Y11737D01*
X192849Y11720D01*
X192866Y11703D01*
X192878Y11697D01*
X192884Y11691D01*
X193005Y11599D01*
X193120Y11530D01*
X193224Y11466D01*
X193316Y11420D01*
X193391Y11380D01*
X193448Y11357D01*
X193471Y11351D01*
X193489Y11345D01*
X193494Y11340D01*
X193500D01*
Y10683D01*
X193304Y10758D01*
X193126Y10844D01*
X192970Y10931D01*
X192895Y10977D01*
X192832Y11023D01*
X192769Y11063D01*
X192717Y11103D01*
X192671Y11138D01*
X192630Y11167D01*
X192601Y11196D01*
X192578Y11213D01*
X192567Y11225D01*
X192561Y11230D01*
Y8500D01*
X191835D01*
Y12296D01*
X192429D01*
X192481Y12169D01*
D02*
G37*
G36*
X192348Y36784D02*
X192509Y36755D01*
X192653Y36709D01*
X192717Y36686D01*
X192774Y36663D01*
X192832Y36640D01*
X192878Y36617D01*
X192918Y36594D01*
X192947Y36571D01*
X192976Y36554D01*
X192993Y36542D01*
X193005Y36537D01*
X193010Y36531D01*
X193068Y36479D01*
X193126Y36421D01*
X193172Y36358D01*
X193218Y36289D01*
X193287Y36145D01*
X193339Y36007D01*
X193362Y35938D01*
X193373Y35874D01*
X193391Y35822D01*
X193396Y35771D01*
X193408Y35730D01*
Y35701D01*
X193414Y35678D01*
Y35673D01*
X192694Y35603D01*
X192682Y35713D01*
X192665Y35811D01*
X192636Y35886D01*
X192613Y35949D01*
X192584Y36001D01*
X192567Y36030D01*
X192550Y36053D01*
X192544Y36059D01*
X192486Y36105D01*
X192429Y36139D01*
X192365Y36162D01*
X192308Y36180D01*
X192262Y36191D01*
X192216Y36197D01*
X192181D01*
X192100Y36191D01*
X192025Y36174D01*
X191962Y36156D01*
X191910Y36133D01*
X191870Y36105D01*
X191841Y36087D01*
X191824Y36070D01*
X191818Y36064D01*
X191772Y36013D01*
X191743Y35949D01*
X191720Y35886D01*
X191703Y35828D01*
X191691Y35776D01*
X191686Y35730D01*
Y35701D01*
Y35690D01*
X191691Y35609D01*
X191709Y35529D01*
X191732Y35454D01*
X191761Y35385D01*
X191789Y35327D01*
X191812Y35287D01*
X191830Y35258D01*
X191835Y35246D01*
X191858Y35212D01*
X191893Y35171D01*
X191933Y35131D01*
X191979Y35085D01*
X192077Y34981D01*
X192181Y34878D01*
X192279Y34786D01*
X192325Y34740D01*
X192359Y34705D01*
X192394Y34676D01*
X192417Y34647D01*
X192434Y34636D01*
X192440Y34630D01*
X192550Y34526D01*
X192653Y34429D01*
X192740Y34336D01*
X192826Y34250D01*
X192901Y34169D01*
X192964Y34094D01*
X193028Y34025D01*
X193079Y33962D01*
X193120Y33910D01*
X193160Y33858D01*
X193189Y33818D01*
X193218Y33783D01*
X193235Y33755D01*
X193247Y33737D01*
X193258Y33726D01*
Y33720D01*
X193327Y33593D01*
X193379Y33467D01*
X193425Y33346D01*
X193454Y33230D01*
X193477Y33138D01*
X193483Y33098D01*
X193489Y33063D01*
X193494Y33040D01*
X193500Y33017D01*
Y33006D01*
Y33000D01*
X190960D01*
Y33674D01*
X192406D01*
X192359Y33749D01*
X192308Y33806D01*
X192290Y33835D01*
X192273Y33852D01*
X192262Y33864D01*
X192256Y33870D01*
X192233Y33893D01*
X192210Y33916D01*
X192146Y33979D01*
X192077Y34048D01*
X192002Y34117D01*
X191933Y34187D01*
X191876Y34238D01*
X191858Y34261D01*
X191841Y34279D01*
X191830Y34284D01*
X191824Y34290D01*
X191703Y34400D01*
X191605Y34498D01*
X191519Y34584D01*
X191455Y34653D01*
X191403Y34705D01*
X191369Y34745D01*
X191351Y34768D01*
X191346Y34774D01*
X191277Y34866D01*
X191213Y34953D01*
X191161Y35033D01*
X191121Y35108D01*
X191092Y35166D01*
X191069Y35212D01*
X191058Y35241D01*
X191052Y35252D01*
X191023Y35339D01*
X191000Y35431D01*
X190983Y35511D01*
X190971Y35586D01*
X190966Y35650D01*
X190960Y35701D01*
Y35730D01*
Y35742D01*
X190966Y35822D01*
X190971Y35903D01*
X191012Y36047D01*
X191063Y36174D01*
X191121Y36283D01*
X191179Y36370D01*
X191208Y36410D01*
X191231Y36439D01*
X191254Y36462D01*
X191271Y36479D01*
X191277Y36485D01*
X191282Y36491D01*
X191346Y36542D01*
X191409Y36594D01*
X191484Y36635D01*
X191553Y36669D01*
X191703Y36721D01*
X191841Y36755D01*
X191910Y36773D01*
X191968Y36779D01*
X192025Y36784D01*
X192071Y36790D01*
X192112Y36796D01*
X192256D01*
X192348Y36784D01*
D02*
G37*
D12*
X211303Y42878D02*
G03*
X211303Y42878I-492J0D01*
G01*
X197992Y146000D02*
G03*
X197992Y146000I-492J0D01*
G01*
X82192Y29507D02*
G03*
X82192Y29507I-492J0D01*
G01*
D14*
X199670Y164390D02*
G03*
X199670Y159665I0J-2362D01*
G01*
X208842Y40220D02*
Y52031D01*
X189157Y40220D02*
Y67779D01*
X208842Y55968D02*
Y67779D01*
X114813Y45539D02*
X122687D01*
X114813Y50461D02*
X122687D01*
X199670Y149823D02*
Y159665D01*
X160299Y149823D02*
Y173838D01*
X199670Y164390D02*
Y174035D01*
X59500Y146626D02*
Y157626D01*
X48507Y146626D02*
Y157626D01*
X182461Y109470D02*
Y117344D01*
X177539Y109470D02*
Y117344D01*
D15*
X52602Y125779D02*
Y133653D01*
X2602D02*
X52602D01*
X2602Y90346D02*
X52602D01*
Y98220D01*
X2602Y90346D02*
Y133653D01*
D16*
X113435Y45539D02*
G03*
X113435Y45539I-197J0D01*
G01*
X177736Y118919D02*
G03*
X177736Y118919I-197J0D01*
G01*
D18*
X209300Y84500D02*
X209600D01*
X209300Y94500D02*
X213300D01*
X209600Y84500D02*
X213300D01*
X209300D02*
Y88150D01*
X213300Y84500D02*
Y88150D01*
Y90850D02*
Y94500D01*
X209300Y90850D02*
Y94500D01*
X214000Y88900D02*
X217400D01*
X214000Y90100D02*
X217400D01*
X126000Y86855D02*
X129700D01*
X126000Y76855D02*
Y86855D01*
Y76855D02*
X130000D01*
Y86855D01*
X129700D02*
X130000D01*
D19*
X160485Y142110D02*
X164184D01*
X160485Y132110D02*
Y142110D01*
Y132110D02*
X164485D01*
Y142110D01*
X164184D02*
X164485D01*
X185300Y89048D02*
X189000D01*
Y99048D01*
X185000D02*
X189000D01*
X185000Y89048D02*
Y99048D01*
Y89048D02*
X185300D01*
X204800Y78194D02*
X208200D01*
X204800Y76995D02*
X208200D01*
X209550Y72500D02*
X213250D01*
X209250Y82500D02*
X213250D01*
X209250Y72500D02*
X209550D01*
X204500Y36452D02*
X208200D01*
X204500Y26452D02*
Y36452D01*
Y26452D02*
X208500D01*
Y36452D01*
X208200D02*
X208500D01*
X194500Y36500D02*
X198200D01*
X194500Y26500D02*
Y36500D01*
Y26500D02*
X198500D01*
Y36500D01*
X198200D02*
X198500D01*
X194848Y15548D02*
X198548D01*
Y25548D01*
X194548D02*
X198548D01*
X194548Y15548D02*
Y25548D01*
Y15548D02*
X194848D01*
X199800D02*
X203500D01*
Y25548D01*
X199500D02*
X203500D01*
X199500Y15548D02*
Y25548D01*
Y15548D02*
X199800D01*
X112548Y38500D02*
Y42200D01*
Y38500D02*
X122548D01*
Y42500D01*
X112548D02*
X122548D01*
X112548Y42200D02*
Y42500D01*
X106400Y46354D02*
Y49754D01*
X107600Y46354D02*
Y49754D01*
X83548Y54000D02*
Y57700D01*
Y54000D02*
X93548D01*
Y58000D01*
X83548D02*
X93548D01*
X83548Y57700D02*
Y58000D01*
X85985Y36585D02*
X89385D01*
X85985Y37785D02*
X89385D01*
X81485Y36585D02*
X84885D01*
X81485Y37785D02*
X84885D01*
X199800Y72548D02*
X203500D01*
Y82548D01*
X199500D02*
X203500D01*
X199500Y72548D02*
Y82548D01*
Y72548D02*
X199800D01*
X160834Y112400D02*
X164234D01*
X160834Y113600D02*
X164234D01*
X160784Y124758D02*
X164184D01*
X160784Y123557D02*
X164184D01*
X171452Y117610D02*
X175152D01*
X171452Y107610D02*
Y117610D01*
Y107610D02*
X175452D01*
Y117610D01*
X175152D02*
X175452D01*
X206300Y154600D02*
X209700D01*
X206300Y153400D02*
X209700D01*
X166300Y113048D02*
X170000D01*
Y123048D01*
X166000D02*
X170000D01*
X166000Y113048D02*
Y123048D01*
Y113048D02*
X166300D01*
X194800Y93400D02*
X198200D01*
X194800Y94600D02*
X198200D01*
X190300D02*
X193700D01*
X190300Y93400D02*
X193700D01*
X201327Y153416D02*
X204727D01*
X201327Y154615D02*
X204727D01*
X163888Y62300D02*
Y66000D01*
X153888Y62000D02*
Y66000D01*
X163888Y62000D02*
Y62300D01*
X159488Y48300D02*
Y51700D01*
X158288Y48300D02*
Y51700D01*
X159488Y57300D02*
Y60700D01*
X158288Y57300D02*
Y60700D01*
X187800Y75195D02*
X191200D01*
X187800Y73994D02*
X191200D01*
X159488Y75800D02*
Y79200D01*
X158288Y75800D02*
Y79200D01*
X159488Y84800D02*
Y88200D01*
X158288Y84800D02*
Y88200D01*
X159488Y80300D02*
Y83700D01*
X158288Y80300D02*
Y83700D01*
X159488Y52896D02*
Y56296D01*
X158288Y52896D02*
Y56296D01*
X193198Y82800D02*
Y86500D01*
X183198D02*
X193198D01*
X183198Y82500D02*
Y86500D01*
Y82500D02*
X193198D01*
Y82800D01*
X194688Y72548D02*
X198388D01*
Y82548D01*
X194388D02*
X198388D01*
X194388Y72548D02*
Y82548D01*
Y72548D02*
X194688D01*
X178598Y134009D02*
X179015Y133592D01*
Y132759D01*
X178598Y132343D01*
X176932D01*
X176515Y132759D01*
Y133592D01*
X176932Y134009D01*
X176515Y134842D02*
Y135675D01*
Y135258D01*
X179015D01*
X178598Y134842D01*
X176515Y138174D02*
X179015D01*
X177765Y136924D01*
Y138591D01*
X59499Y65000D02*
X57416D01*
X57000Y65417D01*
Y66250D01*
X57416Y66666D01*
X59499D01*
Y67499D02*
Y69165D01*
X59083D01*
X57416Y67499D01*
X57000D01*
X131000Y81100D02*
X133499D01*
Y82350D01*
X133083Y82766D01*
X132250D01*
X131833Y82350D01*
Y81100D01*
Y81933D02*
X131000Y82766D01*
Y85265D02*
Y83599D01*
X132666Y85265D01*
X133083D01*
X133499Y84849D01*
Y84016D01*
X133083Y83599D01*
X131000Y87348D02*
X133499D01*
X132250Y86098D01*
Y87765D01*
X168507Y86008D02*
X166424D01*
X166008Y86424D01*
Y87257D01*
X166424Y87674D01*
X168507D01*
Y90173D02*
X168090Y89340D01*
X167257Y88507D01*
X166424D01*
X166008Y88924D01*
Y89757D01*
X166424Y90173D01*
X166841D01*
X167257Y89757D01*
Y88507D01*
X95999Y13500D02*
X93916D01*
X93500Y13916D01*
Y14750D01*
X93916Y15166D01*
X95999D01*
Y17665D02*
Y15999D01*
X94750D01*
X95166Y16832D01*
Y17249D01*
X94750Y17665D01*
X93916D01*
X93500Y17249D01*
Y16416D01*
X93916Y15999D01*
X158499Y169500D02*
X156416D01*
X156000Y169916D01*
Y170750D01*
X156416Y171166D01*
X158499D01*
X156000Y173249D02*
X158499D01*
X157250Y171999D01*
Y173665D01*
X212799Y52200D02*
X210717D01*
X210300Y52617D01*
Y53450D01*
X210717Y53866D01*
X212799D01*
X210300Y56365D02*
Y54699D01*
X211966Y56365D01*
X212383D01*
X212799Y55949D01*
Y55116D01*
X212383Y54699D01*
X6500Y138999D02*
X4834D01*
X5667D01*
Y136500D01*
X4001D02*
X3168D01*
X3584D01*
Y138999D01*
X4001Y138583D01*
X195500Y84000D02*
X197999D01*
Y85250D01*
X197583Y85666D01*
X196750D01*
X196333Y85250D01*
Y84000D01*
Y84833D02*
X195500Y85666D01*
Y88165D02*
Y86499D01*
X197166Y88165D01*
X197583D01*
X197999Y87749D01*
Y86916D01*
X197583Y86499D01*
Y88998D02*
X197999Y89415D01*
Y90248D01*
X197583Y90664D01*
X197166D01*
X196750Y90248D01*
Y89831D01*
Y90248D01*
X196333Y90664D01*
X195916D01*
X195500Y90248D01*
Y89415D01*
X195916Y88998D01*
X93000Y60000D02*
Y62499D01*
X91750D01*
X91334Y62083D01*
Y61250D01*
X91750Y60833D01*
X93000D01*
X92167D02*
X91334Y60000D01*
X88835D02*
X90501D01*
X88835Y61666D01*
Y62083D01*
X89251Y62499D01*
X90084D01*
X90501Y62083D01*
X86335Y60000D02*
X88002D01*
X86335Y61666D01*
Y62083D01*
X86752Y62499D01*
X87585D01*
X88002Y62083D01*
X95000Y96500D02*
Y98999D01*
X93750D01*
X93334Y98583D01*
Y97750D01*
X93750Y97333D01*
X95000D01*
X94167D02*
X93334Y96500D01*
X90835D02*
X92501D01*
X90835Y98166D01*
Y98583D01*
X91251Y98999D01*
X92084D01*
X92501Y98583D01*
X90002Y96500D02*
X89169D01*
X89585D01*
Y98999D01*
X90002Y98583D01*
X181500Y87000D02*
Y89499D01*
X180250D01*
X179834Y89083D01*
Y88250D01*
X180250Y87833D01*
X181500D01*
X180667D02*
X179834Y87000D01*
X177335D02*
X179001D01*
X177335Y88666D01*
Y89083D01*
X177751Y89499D01*
X178584D01*
X179001Y89083D01*
X176502D02*
X176085Y89499D01*
X175252D01*
X174836Y89083D01*
Y87416D01*
X175252Y87000D01*
X176085D01*
X176502Y87416D01*
Y89083D01*
X109000Y38000D02*
Y40499D01*
X107750D01*
X107334Y40083D01*
Y39250D01*
X107750Y38833D01*
X109000D01*
X108167D02*
X107334Y38000D01*
X106501D02*
X105668D01*
X106084D01*
Y40499D01*
X106501Y40083D01*
X104418Y38416D02*
X104002Y38000D01*
X103169D01*
X102752Y38416D01*
Y40083D01*
X103169Y40499D01*
X104002D01*
X104418Y40083D01*
Y39666D01*
X104002Y39250D01*
X102752D01*
X111500Y69000D02*
X113999D01*
Y70250D01*
X113583Y70666D01*
X112750D01*
X112333Y70250D01*
Y69000D01*
Y69833D02*
X111500Y70666D01*
Y71499D02*
Y72332D01*
Y71916D01*
X113999D01*
X113583Y71499D01*
Y73582D02*
X113999Y73998D01*
Y74831D01*
X113583Y75248D01*
X113166D01*
X112750Y74831D01*
X112333Y75248D01*
X111916D01*
X111500Y74831D01*
Y73998D01*
X111916Y73582D01*
X112333D01*
X112750Y73998D01*
X113166Y73582D01*
X113583D01*
X112750Y73998D02*
Y74831D01*
X107000Y82000D02*
Y84499D01*
X105750D01*
X105334Y84083D01*
Y83250D01*
X105750Y82833D01*
X107000D01*
X106167D02*
X105334Y82000D01*
X104501D02*
X103668D01*
X104084D01*
Y84499D01*
X104501Y84083D01*
X102418Y84499D02*
X100752D01*
Y84083D01*
X102418Y82416D01*
Y82000D01*
X156500Y135500D02*
X158999D01*
Y136750D01*
X158583Y137166D01*
X157750D01*
X157333Y136750D01*
Y135500D01*
Y136333D02*
X156500Y137166D01*
Y137999D02*
Y138832D01*
Y138416D01*
X158999D01*
X158583Y137999D01*
X158999Y141748D02*
X158583Y140915D01*
X157750Y140082D01*
X156916D01*
X156500Y140498D01*
Y141331D01*
X156916Y141748D01*
X157333D01*
X157750Y141331D01*
Y140082D01*
X167000Y130100D02*
X169499D01*
Y131350D01*
X169083Y131766D01*
X168250D01*
X167833Y131350D01*
Y130100D01*
Y130933D02*
X167000Y131766D01*
Y132599D02*
Y133432D01*
Y133016D01*
X169499D01*
X169083Y132599D01*
X169499Y136348D02*
Y134682D01*
X168250D01*
X168666Y135515D01*
Y135931D01*
X168250Y136348D01*
X167417D01*
X167000Y135931D01*
Y135098D01*
X167417Y134682D01*
X172250Y120000D02*
X174749D01*
Y121250D01*
X174333Y121666D01*
X173500D01*
X173083Y121250D01*
Y120000D01*
Y120833D02*
X172250Y121666D01*
Y122499D02*
Y123332D01*
Y122916D01*
X174749D01*
X174333Y122499D01*
X172250Y125831D02*
X174749D01*
X173500Y124582D01*
Y126248D01*
X186000Y103000D02*
X188499D01*
Y104250D01*
X188083Y104666D01*
X187250D01*
X186833Y104250D01*
Y103000D01*
Y103833D02*
X186000Y104666D01*
Y105499D02*
Y106332D01*
Y105916D01*
X188499D01*
X188083Y105499D01*
Y107582D02*
X188499Y107998D01*
Y108831D01*
X188083Y109248D01*
X187666D01*
X187250Y108831D01*
Y108415D01*
Y108831D01*
X186833Y109248D01*
X186416D01*
X186000Y108831D01*
Y107998D01*
X186416Y107582D01*
X200500Y85500D02*
X202999D01*
Y86750D01*
X202583Y87166D01*
X201750D01*
X201333Y86750D01*
Y85500D01*
Y86333D02*
X200500Y87166D01*
Y87999D02*
Y88832D01*
Y88416D01*
X202999D01*
X202583Y87999D01*
Y90082D02*
X202999Y90498D01*
Y91331D01*
X202583Y91748D01*
X200917D01*
X200500Y91331D01*
Y90498D01*
X200917Y90082D01*
X202583D01*
X211250Y26500D02*
X213749D01*
Y27750D01*
X213333Y28166D01*
X212500D01*
X212083Y27750D01*
Y26500D01*
Y27333D02*
X211250Y28166D01*
X211666Y28999D02*
X211250Y29416D01*
Y30249D01*
X211666Y30665D01*
X213333D01*
X213749Y30249D01*
Y29416D01*
X213333Y28999D01*
X212916D01*
X212500Y29416D01*
Y30665D01*
X215500Y26500D02*
X217999D01*
Y27750D01*
X217583Y28166D01*
X216750D01*
X216333Y27750D01*
Y26500D01*
Y27333D02*
X215500Y28166D01*
X217583Y28999D02*
X217999Y29416D01*
Y30249D01*
X217583Y30665D01*
X217166D01*
X216750Y30249D01*
X216333Y30665D01*
X215916D01*
X215500Y30249D01*
Y29416D01*
X215916Y28999D01*
X216333D01*
X216750Y29416D01*
X217166Y28999D01*
X217583D01*
X216750Y29416D02*
Y30249D01*
X209000Y16500D02*
X211499D01*
Y17750D01*
X211083Y18166D01*
X210250D01*
X209833Y17750D01*
Y16500D01*
Y17333D02*
X209000Y18166D01*
Y20665D02*
Y18999D01*
X210666Y20665D01*
X211083D01*
X211499Y20249D01*
Y19416D01*
X211083Y18999D01*
X213000Y16500D02*
X215499D01*
Y17750D01*
X215083Y18166D01*
X214250D01*
X213833Y17750D01*
Y16500D01*
Y17333D02*
X213000Y18166D01*
Y18999D02*
Y19832D01*
Y19416D01*
X215499D01*
X215083Y18999D01*
X185999Y47000D02*
X183500D01*
Y48666D01*
Y50749D02*
X185999D01*
X184750Y49499D01*
Y51165D01*
X193501Y142500D02*
X196000D01*
Y140834D01*
Y138335D02*
Y140001D01*
X194334Y138335D01*
X193917D01*
X193501Y138751D01*
Y139584D01*
X193917Y140001D01*
X110000Y123657D02*
Y121158D01*
X108334D01*
X107501D02*
X106668D01*
X107084D01*
Y123657D01*
X107501Y123240D01*
X158334Y70499D02*
X160000D01*
Y69250D01*
X159167D01*
X160000D01*
Y68000D01*
X157501Y70499D02*
Y68000D01*
X156251D01*
X155835Y68417D01*
Y68833D01*
X156251Y69250D01*
X157501D01*
X156251D01*
X155835Y69666D01*
Y70083D01*
X156251Y70499D01*
X157501D01*
X155002Y70083D02*
X154585Y70499D01*
X153752D01*
X153335Y70083D01*
Y69666D01*
X153752Y69250D01*
X154169D01*
X153752D01*
X153335Y68833D01*
Y68417D01*
X153752Y68000D01*
X154585D01*
X155002Y68417D01*
X212799Y65866D02*
Y64200D01*
X211550D01*
Y65033D01*
Y64200D01*
X210300D01*
X212799Y66699D02*
X210300D01*
Y67949D01*
X210717Y68365D01*
X211133D01*
X211550Y67949D01*
Y66699D01*
Y67949D01*
X211966Y68365D01*
X212383D01*
X212799Y67949D01*
Y66699D01*
X210300Y70864D02*
Y69198D01*
X211966Y70864D01*
X212383D01*
X212799Y70448D01*
Y69615D01*
X212383Y69198D01*
X218299Y79477D02*
Y77811D01*
X217050D01*
Y78644D01*
Y77811D01*
X215800D01*
X218299Y80310D02*
X215800D01*
Y81560D01*
X216216Y81976D01*
X216633D01*
X217050Y81560D01*
Y80310D01*
Y81560D01*
X217466Y81976D01*
X217883D01*
X218299Y81560D01*
Y80310D01*
X215800Y82809D02*
Y83642D01*
Y83226D01*
X218299D01*
X217883Y82809D01*
X62834Y141999D02*
X64500D01*
Y140750D01*
X63667D01*
X64500D01*
Y139500D01*
X62001D02*
X61168D01*
X61584D01*
Y141999D01*
X62001Y141583D01*
X122000Y54499D02*
Y52000D01*
X120750D01*
X120334Y52416D01*
Y54083D01*
X120750Y54499D01*
X122000D01*
X119501Y52416D02*
X119084Y52000D01*
X118251D01*
X117835Y52416D01*
Y54083D01*
X118251Y54499D01*
X119084D01*
X119501Y54083D01*
Y53666D01*
X119084Y53250D01*
X117835D01*
X186499Y115610D02*
X184000D01*
Y116859D01*
X184416Y117276D01*
X186083D01*
X186499Y116859D01*
Y115610D01*
X184000Y119358D02*
X186499D01*
X185250Y118109D01*
Y119775D01*
X159000Y93499D02*
Y91000D01*
X157750D01*
X157334Y91417D01*
Y93083D01*
X157750Y93499D01*
X159000D01*
X156501Y93083D02*
X156084Y93499D01*
X155251D01*
X154835Y93083D01*
Y92666D01*
X155251Y92250D01*
X155668D01*
X155251D01*
X154835Y91833D01*
Y91417D01*
X155251Y91000D01*
X156084D01*
X156501Y91417D01*
X215883Y170246D02*
Y167747D01*
X214634D01*
X214217Y168163D01*
Y169829D01*
X214634Y170246D01*
X215883D01*
X211718Y167747D02*
X213384D01*
X211718Y169413D01*
Y169829D01*
X212135Y170246D01*
X212968D01*
X213384Y169829D01*
X81500Y173999D02*
Y171500D01*
X80250D01*
X79834Y171916D01*
Y173583D01*
X80250Y173999D01*
X81500D01*
X79001Y171500D02*
X78168D01*
X78584D01*
Y173999D01*
X79001Y173583D01*
X163083Y27666D02*
X163499Y27250D01*
Y26417D01*
X163083Y26000D01*
X161416D01*
X161000Y26417D01*
Y27250D01*
X161416Y27666D01*
X161000Y28499D02*
X163499D01*
X161000Y30165D01*
X163499D01*
X161000Y30998D02*
Y31831D01*
Y31415D01*
X163499D01*
X163083Y30998D01*
X149834Y60083D02*
X150250Y60499D01*
X151084D01*
X151500Y60083D01*
Y58416D01*
X151084Y58000D01*
X150250D01*
X149834Y58416D01*
X147335Y58000D02*
X149001D01*
X147335Y59666D01*
Y60083D01*
X147751Y60499D01*
X148584D01*
X149001Y60083D01*
X146502Y60499D02*
X144835D01*
Y60083D01*
X146502Y58416D01*
Y58000D01*
X149834Y55583D02*
X150250Y55999D01*
X151084D01*
X151500Y55583D01*
Y53917D01*
X151084Y53500D01*
X150250D01*
X149834Y53917D01*
X147335Y53500D02*
X149001D01*
X147335Y55166D01*
Y55583D01*
X147751Y55999D01*
X148584D01*
X149001Y55583D01*
X144835Y55999D02*
X145669Y55583D01*
X146502Y54750D01*
Y53917D01*
X146085Y53500D01*
X145252D01*
X144835Y53917D01*
Y54333D01*
X145252Y54750D01*
X146502D01*
X149634Y100203D02*
X150050Y100620D01*
X150883D01*
X151300Y100203D01*
Y98537D01*
X150883Y98120D01*
X150050D01*
X149634Y98537D01*
X147135Y98120D02*
X148801D01*
X147135Y99787D01*
Y100203D01*
X147551Y100620D01*
X148384D01*
X148801Y100203D01*
X144635Y100620D02*
X146302D01*
Y99370D01*
X145469Y99787D01*
X145052D01*
X144635Y99370D01*
Y98537D01*
X145052Y98120D01*
X145885D01*
X146302Y98537D01*
X149634Y96203D02*
X150050Y96620D01*
X150883D01*
X151300Y96203D01*
Y94537D01*
X150883Y94121D01*
X150050D01*
X149634Y94537D01*
X147135Y94121D02*
X148801D01*
X147135Y95787D01*
Y96203D01*
X147551Y96620D01*
X148384D01*
X148801Y96203D01*
X145052Y94121D02*
Y96620D01*
X146302Y95370D01*
X144635D01*
X149834Y51083D02*
X150250Y51499D01*
X151084D01*
X151500Y51083D01*
Y49417D01*
X151084Y49000D01*
X150250D01*
X149834Y49417D01*
X147335Y49000D02*
X149001D01*
X147335Y50666D01*
Y51083D01*
X147751Y51499D01*
X148584D01*
X149001Y51083D01*
X146502D02*
X146085Y51499D01*
X145252D01*
X144835Y51083D01*
Y50666D01*
X145252Y50250D01*
X145669D01*
X145252D01*
X144835Y49833D01*
Y49417D01*
X145252Y49000D01*
X146085D01*
X146502Y49417D01*
X149634Y92203D02*
X150050Y92620D01*
X150883D01*
X151300Y92203D01*
Y90537D01*
X150883Y90121D01*
X150050D01*
X149634Y90537D01*
X147135Y90121D02*
X148801D01*
X147135Y91787D01*
Y92203D01*
X147551Y92620D01*
X148384D01*
X148801Y92203D01*
X144635Y90121D02*
X146302D01*
X144635Y91787D01*
Y92203D01*
X145052Y92620D01*
X145885D01*
X146302Y92203D01*
X187281Y64782D02*
X187697Y64365D01*
Y63532D01*
X187281Y63116D01*
X185615D01*
X185198Y63532D01*
Y64365D01*
X185615Y64782D01*
X185198Y67281D02*
Y65615D01*
X186864Y67281D01*
X187281D01*
X187697Y66864D01*
Y66031D01*
X187281Y65615D01*
X185198Y68114D02*
Y68947D01*
Y68530D01*
X187697D01*
X187281Y68114D01*
X107834Y44583D02*
X108250Y44999D01*
X109083D01*
X109500Y44583D01*
Y42917D01*
X109083Y42500D01*
X108250D01*
X107834Y42917D01*
X105335Y42500D02*
X107001D01*
X105335Y44166D01*
Y44583D01*
X105751Y44999D01*
X106584D01*
X107001Y44583D01*
X104502D02*
X104085Y44999D01*
X103252D01*
X102836Y44583D01*
Y42917D01*
X103252Y42500D01*
X104085D01*
X104502Y42917D01*
Y44583D01*
X91334Y45083D02*
X91750Y45499D01*
X92584D01*
X93000Y45083D01*
Y43417D01*
X92584Y43000D01*
X91750D01*
X91334Y43417D01*
X90501Y43000D02*
X89668D01*
X90084D01*
Y45499D01*
X90501Y45083D01*
X88418Y43417D02*
X88002Y43000D01*
X87169D01*
X86752Y43417D01*
Y45083D01*
X87169Y45499D01*
X88002D01*
X88418Y45083D01*
Y44666D01*
X88002Y44250D01*
X86752D01*
X81334Y45083D02*
X81750Y45499D01*
X82583D01*
X83000Y45083D01*
Y43417D01*
X82583Y43000D01*
X81750D01*
X81334Y43417D01*
X80501Y43000D02*
X79668D01*
X80084D01*
Y45499D01*
X80501Y45083D01*
X78418Y45499D02*
X76752D01*
Y45083D01*
X78418Y43417D01*
Y43000D01*
X158883Y122166D02*
X159299Y121750D01*
Y120916D01*
X158883Y120500D01*
X157217D01*
X156800Y120916D01*
Y121750D01*
X157217Y122166D01*
X156800Y122999D02*
Y123832D01*
Y123416D01*
X159299D01*
X158883Y122999D01*
X159299Y126748D02*
X158883Y125915D01*
X158050Y125082D01*
X157217D01*
X156800Y125498D01*
Y126331D01*
X157217Y126748D01*
X157633D01*
X158050Y126331D01*
Y125082D01*
X158583Y111137D02*
X158999Y110720D01*
Y109887D01*
X158583Y109470D01*
X156916D01*
X156500Y109887D01*
Y110720D01*
X156916Y111137D01*
X156500Y111970D02*
Y112803D01*
Y112386D01*
X158999D01*
X158583Y111970D01*
X158999Y115718D02*
Y114052D01*
X157750D01*
X158166Y114885D01*
Y115302D01*
X157750Y115718D01*
X156916D01*
X156500Y115302D01*
Y114469D01*
X156916Y114052D01*
X193083Y104666D02*
X193499Y104250D01*
Y103417D01*
X193083Y103000D01*
X191417D01*
X191000Y103417D01*
Y104250D01*
X191417Y104666D01*
Y105499D02*
X191000Y105916D01*
Y106749D01*
X191417Y107165D01*
X193083D01*
X193499Y106749D01*
Y105916D01*
X193083Y105499D01*
X192666D01*
X192250Y105916D01*
Y107165D01*
X208410Y145682D02*
X208827Y145265D01*
Y144432D01*
X208410Y144016D01*
X206744D01*
X206327Y144432D01*
Y145265D01*
X206744Y145682D01*
X208410Y146515D02*
X208827Y146931D01*
Y147764D01*
X208410Y148181D01*
X207994D01*
X207577Y147764D01*
X207160Y148181D01*
X206744D01*
X206327Y147764D01*
Y146931D01*
X206744Y146515D01*
X207160D01*
X207577Y146931D01*
X207994Y146515D01*
X208410D01*
X207577Y146931D02*
Y147764D01*
X197583Y104666D02*
X197999Y104250D01*
Y103417D01*
X197583Y103000D01*
X195916D01*
X195500Y103417D01*
Y104250D01*
X195916Y104666D01*
X197999Y107165D02*
X197583Y106332D01*
X196750Y105499D01*
X195916D01*
X195500Y105916D01*
Y106749D01*
X195916Y107165D01*
X196333D01*
X196750Y106749D01*
Y105499D01*
X209106Y163567D02*
X209523Y163984D01*
X210356D01*
X210773Y163567D01*
Y161901D01*
X210356Y161485D01*
X209523D01*
X209106Y161901D01*
X206607Y163984D02*
X208273D01*
Y162734D01*
X207440Y163151D01*
X207024D01*
X206607Y162734D01*
Y161901D01*
X207024Y161485D01*
X207857D01*
X208273Y161901D01*
X207383Y90566D02*
X207799Y90150D01*
Y89316D01*
X207383Y88900D01*
X205716D01*
X205300Y89316D01*
Y90150D01*
X205716Y90566D01*
X205300Y93065D02*
Y91399D01*
X206966Y93065D01*
X207383D01*
X207799Y92649D01*
Y91816D01*
X207383Y91399D01*
X221883Y81866D02*
X222299Y81450D01*
Y80616D01*
X221883Y80200D01*
X220216D01*
X219800Y80616D01*
Y81450D01*
X220216Y81866D01*
X219800Y82699D02*
Y83532D01*
Y83116D01*
X222299D01*
X221883Y82699D01*
D20*
X208842Y55968D02*
G03*
X208842Y52031I0J-1969D01*
G01*
X83995Y88183D02*
X96295D01*
Y94983D01*
X83995D02*
X96295D01*
X83995Y88183D02*
Y94983D01*
D123*
X81500Y76087D02*
G03*
X81500Y71087I0J-2500D01*
G01*
X129405Y132500D02*
G03*
X129405Y132500I-5906J0D01*
G01*
X209906Y125500D02*
G03*
X209906Y125500I-5906J0D01*
G01*
X181063Y131968D02*
X188937D01*
X181063Y128032D02*
X188937D01*
X81500Y64079D02*
Y71087D01*
Y76087D02*
Y83095D01*
X61500D02*
X81500D01*
X61500Y64079D02*
Y83095D01*
Y64079D02*
X81500D01*
X167100Y46500D02*
X181700D01*
X167100Y64400D02*
X181500D01*
X181700Y46500D02*
Y53200D01*
X167100Y46500D02*
Y53100D01*
Y57900D02*
Y64400D01*
X181500Y58000D02*
Y64400D01*
X190500Y-500D02*
Y9500D01*
X165500Y-500D02*
X190500D01*
X165500D02*
Y9500D01*
X190500D01*
Y32000D01*
X165500D02*
X190500D01*
X165500Y9500D02*
Y32000D01*
X190500Y-13000D02*
Y-500D01*
X165500Y-13000D02*
X190500D01*
X165500D02*
Y-500D01*
X175500D02*
X185500Y9500D01*
X170500Y-500D02*
X180500Y9500D01*
X165500Y4500D02*
X170500Y9500D01*
X185500Y-500D02*
X190500Y4500D01*
X187000Y6000D02*
X190500Y9500D01*
X180500Y-500D02*
X183000Y2000D01*
X172000Y6000D02*
X175500Y9500D01*
X165500Y-500D02*
X168000Y2000D01*
X91040Y71400D02*
Y80500D01*
Y71400D02*
X107640D01*
X91040Y80500D02*
X107640D01*
Y71400D02*
Y80500D01*
X100400Y68700D02*
X109500D01*
X100400Y52100D02*
Y68700D01*
X109500Y52100D02*
Y68700D01*
X100400Y52100D02*
X109500D01*
X111689Y138406D02*
Y140374D01*
X135311Y124626D02*
Y126594D01*
Y138406D02*
Y144311D01*
X111689Y120689D02*
Y126594D01*
X131374Y120689D02*
X135311Y124626D01*
X111689Y120689D02*
X131374D01*
X111689Y140374D02*
X115626Y144311D01*
X135311D01*
X79201Y12835D02*
Y27795D01*
X91799Y12835D02*
Y27795D01*
X79201D02*
X91799D01*
X79201Y12835D02*
X91799D01*
X209906Y137311D02*
X211874D01*
X196126Y113689D02*
X198094D01*
X209906D02*
X215811D01*
X192189Y137311D02*
X198094D01*
X192189Y117626D02*
X196126Y113689D01*
X192189Y117626D02*
Y137311D01*
X211874D02*
X215811Y133374D01*
Y113689D02*
Y133374D01*
D124*
X180449Y104000D02*
Y105000D01*
X161551Y104024D02*
Y104905D01*
Y93000D02*
Y93882D01*
X180449Y93000D02*
Y94000D01*
X161551Y93000D02*
X180449D01*
X170100D02*
Y105000D01*
X168829Y93000D02*
Y105000D01*
X161551D02*
X180449D01*
X52551Y166500D02*
Y167500D01*
X71449Y166595D02*
Y167476D01*
Y177618D02*
Y178500D01*
X52551Y177500D02*
Y178500D01*
X71449D01*
X62900Y166500D02*
Y178500D01*
X64171Y166500D02*
Y178500D01*
X52551Y166500D02*
X71449D01*
X211500Y160551D02*
X212500D01*
X211595Y141653D02*
X212476D01*
X222618D02*
X223500D01*
X222500Y160551D02*
X223500D01*
Y141653D02*
Y160551D01*
X211500Y150202D02*
X223500D01*
X211500Y148932D02*
X223500D01*
X211500Y141653D02*
Y160551D01*
D125*
X209250Y78850D02*
Y82500D01*
X213250Y78850D02*
Y82500D01*
Y72500D02*
Y76150D01*
X209250Y72500D02*
Y76150D01*
X153888Y62000D02*
X157538D01*
X153888Y66000D02*
X157538D01*
X160238D02*
X163888D01*
X160238Y62000D02*
X163888D01*
D126*
X168398Y70899D02*
D03*
D127*
X167805Y72277D02*
D03*
D128*
X168396Y83106D02*
D03*
X180601Y72086D02*
D03*
D129*
X169183Y83699D02*
D03*
X179813Y71494D02*
D03*
D130*
X180601Y82907D02*
D03*
D131*
X180008Y83695D02*
D03*
D132*
X117700Y47930D02*
D03*
D133*
X179930Y114457D02*
D03*
M02*
