M48
;Layer_Color=9474304
;FILE_FORMAT=2:5
INCH
;TYPE=PLATED
T1F00S00C0.01200
T2F00S00C0.01600
T3F00S00C0.02756
T4F00S00C0.02800
T5F00S00C0.03150
T6F00S00C0.03937
T7F00S00C0.05906
;TYPE=NON_PLATED
T8F00S00C0.03937
T9F00S00C0.11811
%
T01
X0050500Y0006500
X0045000Y0024500
X0039500
X0066500Y0023000
X0077500Y0036000
X0085500Y0030000
X0093500Y0036000
X0066303Y0048000
X0058000
X0131200Y0034400
X0142600Y0043800
X0147500Y0021700
X0206500Y0019000
X0224600Y0056500
X0174500Y0068000
X0144000Y0064000
X0142700Y0084900
X0121000Y0080900
X0121300Y0076600
X0112000Y0085000
X0080000Y0115750
Y0119000
Y0122000
Y0125250
Y0128500
X0077000Y0126500
Y0123250
Y0120000
Y0117000
Y0113750
X0074000Y0115250
Y0118500
Y0121500
Y0124750
Y0128000
X0060000
Y0124750
Y0121500
Y0118500
Y0115250
X0057000Y0113750
Y0117000
Y0120000
Y0123250
Y0126500
X0054000Y0128000
Y0125000
Y0121750
Y0118500
Y0115500
Y0112250
X0050500Y0111500
Y0114500
Y0117500
Y0120500
Y0123500
Y0126500
T02
X0125500Y0053000
X0136800Y0051900
X0164900Y0040815
X0168000Y0035100
X0178000Y0035000
X0183000Y0034700
X0186500Y0042200
X0174300Y0042300
X0191500Y0050500
X0201500Y0051000
X0212000Y0048700
X0212300Y0040815
X0201500Y0034500
Y0028452
Y0013000
X0192798Y0014500
X0164306Y0017798
X0158480Y0029245
X0154200Y0026100
X0224600Y0064500
X0223500Y0088000
X0221000Y0092400
X0215600Y0084200
X0211250Y0083720
X0206500
Y0086900
X0201500Y0083500
X0199700Y0091000
X0191952Y0088250
X0183750Y0091000
X0184500Y0075000
X0196548Y0071689
X0191500Y0057500
X0166600Y0077500
X0167000Y0082500
X0170900Y0086300
X0151000Y0088000
Y0084000
X0148800Y0086000
X0143900Y0089100
X0134800Y0089900
X0141500Y0076500
Y0073189
Y0069952
X0144000Y0071500
Y0068263
X0146500Y0069763
Y0073000
Y0076311
X0144000Y0074811
Y0077811
X0146500Y0064000
X0113783Y0066048
T03
X0106500Y0150626
Y0170311
X0138433
Y0150626
T04
X0075500Y0022500
X0095500
X0214500Y0174000
X0220000
X0209000
X0203000
X0204079Y0162000
X0210000
X0184000Y0142500
X0168200Y0127100
T05
X0098500Y0112657
Y0132343
X0147500
Y0112657
T06
X0213921Y0108000
X0204079
X0087685Y0151913
X0068000Y0159000
X0041500Y0151248
Y0170933
T07
X0018500Y0011500
Y0031185
X0019000Y0054500
X0112500Y0018500
X0132185
X0019000Y0074185
X0018500Y0147815
Y0167500
T08
X0170500Y0004000
X0185500
T09
X0123000Y0104100
M30
